<?xml version="1.0" encoding="utf-8"?>
<!-- Generator: Adobe Illustrator 16.0.1, SVG Export Plug-In . SVG Version: 6.00 Build 0)  -->
<!DOCTYPE svg PUBLIC "-//W3C//DTD SVG 1.1 Tiny//EN" "http://www.w3.org/Graphics/SVG/1.1/DTD/svg11-tiny.dtd">
<svg version="1.1" baseProfile="tiny" id="Layer_1" xmlns:sketch="http://www.bohemiancoding.com/sketch/ns"
	 xmlns="http://www.w3.org/2000/svg" xmlns:xlink="http://www.w3.org/1999/xlink" x="0px" y="0px" width="341px" height="357.685px"
	 viewBox="104 -30.073 341 357.685" xml:space="preserve">
<title>Slice 1</title>
<description>Created with Sketch (http://www.bohemiancoding.com/sketch)</description>
<path fill="none" stroke="#000000" stroke-width="16" d="M110.667,142.667c147.455-7.012,114.489-8.424,168.832-8.424
	c50.752,0,159.835,5.062,159.835,5.062"/>
<path d="M383.182,130c0-56.978,22.732-115.564-4.812-150.975C354.252-51.981,310.848,6.667,272.073,18
	c-30.559-6.667-80.268-67.993-103.549-41.444c-31.098,35.462-8.343,95.573-8.343,156.687L383.182,130z"/>
<circle fill="#020202" cx="203.5" cy="199.552" r="23"/>
<circle fill="#020202" cx="343.5" cy="199.552" r="23"/>
<path d="M400.883,277.819c-1.668-1.604-4.235-1.831-6.164-0.552c-0.076,0.052-7.712,5.042-18.227,7.456
	c-13.515,3.105-25.369,0.688-35.221-7.196c-32.211-25.771-59.431-16.429-67.77-12.494c-8.345-3.934-35.561-13.27-67.773,12.494
	c-9.85,7.884-21.696,10.307-35.22,7.196c-10.52-2.414-18.149-7.404-18.215-7.451c-1.931-1.289-4.494-1.062-6.174,0.537
	c-1.676,1.6-2.024,4.149-0.831,6.138c0.899,1.497,22.417,36.715,59.812,42.781c3.61,0.588,7.241,0.883,10.882,0.883
	c18.927,0,38.217-7.917,57.52-23.597c19.303,15.68,38.592,23.597,57.52,23.597c3.641,0,7.271-0.295,10.881-0.883
	c37.396-6.069,58.92-41.284,59.811-42.781C402.901,281.968,402.559,279.42,400.883,277.819z"/>
</svg>
